Coordinates
version=1
nRows=16
nColumns=36
inDegrees=yes

Units are S.I. units (second, meters, Newtons, ...)
If the header above contains a line with 'inDegrees', this indicates whether rotational values are in degrees (yes) or radians (no).

endheader
time	pelvis_tilt	pelvis_list	pelvis_rotation	pelvis_tx	pelvis_ty	pelvis_tz	hip_flexion_r	hip_adduction_r	hip_rotation_r	knee_angle_r	knee_angle_r_beta	ankle_angle_r	subtalar_angle_r	mtp_angle_r	hip_flexion_l	hip_adduction_l	hip_rotation_l	knee_angle_l	knee_angle_l_beta	ankle_angle_l	subtalar_angle_l	mtp_angle_l	lumbar_extension	lumbar_bending	lumbar_rotation	arm_flex_r	arm_add_r	arm_rot_r	elbow_flex_r	pro_sup_r	arm_flex_l	arm_add_l	arm_rot_l	elbow_flex_l	pro_sup_l
      2.58333330	      3.29494710	      1.06251845	     -7.57683276	     -0.13774047	      1.09703502	      0.04100432	      9.00814917	      4.16248218	     -3.59770387	     15.70216121	      0.27405441	     10.72474736	     -5.10406298	     -7.49999987	     34.09987871	     -4.31918768	     -0.90469705	     37.55716846	      0.65549625	     11.37599392	     -5.44685775	     -7.49999987	     -7.70170038	      3.97953882	      2.46452184	     41.30940493	      7.36310982	     68.87701207	    120.94984542	     84.79850585	     49.78767944	      2.87143697	     67.79284702	    129.17312738	     60.54020615
      2.60000000	      3.32959751	      1.19088838	     -7.60549448	     -0.13977137	      1.09741812	      0.04263112	      8.96273788	      4.20348575	     -3.15560295	     15.42038208	      0.26913644	     11.97941835	     -5.40680781	     -7.49999987	     34.21138255	     -4.45224384	     -0.83603072	     35.21090352	      0.61454620	     12.87135747	     -2.01608053	     -7.49999987	     -7.86370501	      3.68312490	      2.78503303	     41.26855809	      7.19011135	     68.74704030	    121.15681406	     85.04054351	     49.70945853	      3.07161889	     67.90074757	    129.19037075	     60.34138310
      2.61666670	      3.26965684	      1.30241846	     -7.47154971	     -0.13985073	      1.09672369	      0.04292411	      8.98172855	      4.24890434	     -3.01304073	     15.42179248	      0.26916106	     12.62124459	     -5.87767317	     -7.49999987	     34.38584084	     -4.44900157	     -0.35113529	     33.48834399	      0.58448186	     12.69787215	     -0.90868586	     -7.49999987	     -7.92017615	      3.39288693	      2.67076551	     40.98571623	      7.05425887	     68.76797105	    121.53965768	     85.17258871	     49.26526182	      3.21447220	     67.84603100	    129.13434983	     60.28495186
      2.63333330	      3.26285802	      1.30775069	     -7.27355583	     -0.14043038	      1.09660938	      0.04332358	      8.90890359	      4.38247585	     -2.64390726	     15.49077388	      0.27036501	     13.24140552	     -6.10112887	     -7.49999987	     34.62619479	     -4.52711792	      0.30744340	     32.34526868	      0.56453144	     12.43890526	     -0.19206253	     -7.49999987	     -8.07004079	      3.24008742	      2.65553914	     41.06253086	      6.98794728	     68.65996566	    121.76568358	     85.22518234	     49.12150915	      3.36147060	     67.74458707	    129.05029757	     60.26812621
      2.65000000	      3.28561588	      1.35119056	     -7.03249161	     -0.14035925	      1.09378832	      0.04361434	      9.05550802	      4.38283080	     -2.41859102	     15.85462480	      0.27671540	     13.83564785	     -6.52881916	     -7.49999987	     34.71989488	     -4.56031101	      0.82507650	     31.74113216	      0.55398726	     11.99884055	      0.38141592	     -7.49999987	     -8.09886038	      2.92201526	      2.68360137	     40.94758762	      6.84117925	     68.42626814	    122.30806383	     84.78331932	     48.86137841	      3.66119184	     67.44906504	    128.77932818	     60.28811306
      2.66666670	      3.29974173	      1.42385894	     -6.95954381	     -0.14074414	      1.09399871	      0.04468154	      9.29480643	      4.40191715	     -2.31766682	     16.38762745	      0.28601806	     14.25537674	     -7.05161585	     -7.49999987	     34.98490523	     -4.51395164	      1.42862981	     31.27777059	      0.54590008	     11.89707551	      0.62958100	     -7.49999987	     -8.10906462	      2.73054747	      2.76921962	     40.92734570	      6.74785706	     68.26321427	    122.59727182	     84.39831366	     48.77733826	      3.80036746	     67.10411962	    128.63219886	     60.31947159
      2.68333330	      3.39428579	      1.38090338	     -6.86858109	     -0.13924613	      1.09213430	      0.04489529	      9.44044063	      4.47286031	     -2.17141133	     16.78611630	      0.29297300	     14.31462637	     -7.17428006	     -7.49999987	     35.11720704	     -4.54490160	      1.94467529	     30.88253764	      0.53900196	     11.73778960	      0.90750653	     -7.49999987	     -8.25902210	      2.70716650	      2.79306007	     41.13329605	      6.80765802	     68.16041240	    122.75801087	     84.46614581	     48.90501496	      3.92845386	     66.93023213	    128.54878364	     60.33524113
      2.70000000	      3.47863348	      1.39352787	     -6.73805343	     -0.14240555	      1.09370652	      0.04588161	      9.65082528	      4.51002407	     -1.92074889	     17.01651925	      0.29699429	     13.72431946	     -7.92272220	     -7.49999987	     35.23429130	     -4.54674128	      2.34626087	     30.55211139	      0.53323494	     11.11336181	      0.77073543	     -7.49999987	     -8.37548412	      2.41780971	      3.13600463	     41.37750510	      6.56247061	     67.76146213	    123.17600307	     86.64034829	     49.27675275	      4.42339116	     66.76619712	    128.03922232	     61.21209638
      2.71666670	      3.61578485	      1.19028415	     -6.48538555	     -0.14375634	      1.09244340	      0.04668443	      9.70219852	      4.72386109	     -2.03462998	     16.90117869	      0.29498122	     13.43171827	     -8.00741344	     -7.49999987	     35.36979484	     -4.67837815	      2.71813300	     30.27604873	      0.52841673	     10.79850722	      0.73341024	     -7.49999987	     -8.43208860	      2.57734843	      3.02181566	     41.86968394	      6.59081075	     67.71884424	    123.11108666	     86.21998168	     49.74254725	      4.41530391	     66.42395759	    127.86744757	     61.19582155
      2.73333330	      3.44530461	      1.28683449	     -6.18551099	     -0.14208162	      1.09286884	      0.04683264	      9.88509739	      4.66619635	     -2.03811302	     17.06591186	      0.29785635	     13.30016219	     -8.07203351	     -7.49999987	     35.66288490	     -4.60287923	      3.05627971	     30.38632116	      0.53034135	     10.51578021	      0.58559831	     -7.49999987	     -7.98841320	      2.45308248	      2.94770618	     41.80542921	      6.51249621	     67.63300734	    122.71688118	     85.57590397	     50.04247374	      4.32439603	     66.17303571	    127.61981043	     61.15853207
      2.75000000	      3.75306341	      1.43928163	     -5.92219833	     -0.14361239	      1.09423054	      0.04813257	      9.43575058	      4.56322060	     -2.13045096	     17.21424639	      0.30044528	     13.49966351	     -8.01671821	     -7.49999987	     35.37552617	     -4.33708697	      3.32128322	     30.10020641	      0.52534771	      9.78320059	      0.06593446	     -7.49999987	     -8.31819147	      2.09122419	      2.90917981	     41.96226255	      6.44047441	     67.52273058	    122.74612022	     85.22836872	     50.59004706	      4.47560937	     66.14378650	    127.37125727	     61.14032859
      2.76666670	      3.92118620	      1.55117795	     -5.74756921	     -0.14250847	      1.09432675	      0.04864768	      9.08814276	      4.45846393	     -2.09473989	     17.44761615	      0.30451835	     13.54346429	     -8.11290829	     -7.49999987	     35.01832471	     -4.14284991	      3.38823586	     29.57509585	      0.51618280	      9.28271144	     -0.19542936	     -7.49999987	     -8.38671420	      1.81964623	      2.88770868	     41.83053389	      6.30491410	     67.52423435	    122.79816731	     84.79616682	     50.66605200	      4.51017377	     66.16023560	    127.24802392	     61.10387619
      2.78333330	      4.18922937	      1.70540549	     -5.62241917	     -0.14304615	      1.09404395	      0.04966955	      8.82848488	      4.32994640	     -2.14715097	     17.95625585	      0.31339579	     14.03039537	     -7.92423739	     -7.49999987	     34.67334532	     -3.87540323	      3.54462014	     29.47196333	      0.51438280	      9.00584999	     -0.42406909	     -7.49999987	     -8.46852797	      1.52385396	      2.98956832	     41.98966077	      6.23494554	     67.41529465	    122.65467509	     84.79227255	     50.81542186	      4.54178649	     66.08184130	    127.08040391	     61.05826112
      2.80000000	      4.47009307	      1.62336758	     -5.54316005	     -0.14234580	      1.09597079	      0.05029576	      8.49699715	      4.39279942	     -2.16251448	     17.93121240	      0.31295870	     14.11685248	     -7.90304858	     -7.49999987	     34.11695422	     -3.85722030	      3.63584094	     28.89990498	      0.50439850	      8.75824690	     -0.47478109	     -7.49999987	     -8.62896747	      1.55883273	      3.02509197	     42.19459056	      6.12183490	     67.46271462	    122.51592277	     84.69586217	     50.77982258	      4.49626414	     66.05320581	    127.14026658	     61.05726089
      2.81666670	      4.48451638	      1.41490877	     -5.53235311	     -0.14251149	      1.09468338	      0.05067501	      8.60643265	      4.59099374	     -2.21590220	     17.98562088	      0.31390830	     14.18286452	     -7.67702179	     -7.49999987	     33.93517664	     -3.99347644	      3.70566071	     28.41326541	      0.49590503	      8.77597831	     -0.72673826	     -7.49999987	     -8.57099021	      1.71144159	      3.03818903	     42.07791902	      6.01166363	     67.52252999	    122.46917080	     84.32573924	     50.54555892	      4.49824495	     66.08125129	    127.02910529	     61.10723117
      2.83333330	      4.38867743	      1.22071375	     -5.41047836	     -0.14210422	      1.09450575	      0.05122715	      8.79303564	      4.81841790	     -2.01874309	     17.82493833	      0.31110386	     14.24161356	     -7.69757285	     -7.49999987	     33.96678824	     -4.12043675	      3.79799725	     27.80885513	      0.48535608	      8.54650043	     -0.85875550	     -7.49999987	     -8.41286984	      1.97354827	      2.91616974	     41.89512931	      5.94967818	     67.66846532	    122.39834999	     84.03475804	     50.20062497	      4.38706934	     66.05912272	    127.25559613	     61.10670023
